# xmcd
#
# Track frame offsets:
#        150
#        23677
#        35280
#        49155
#        69072
#
# Disc length: 1165 seconds
#
# Revision: 1
# Processed by: cddbd v1.5.1PL0 Copyright (c) Steve Scherf et al.
# Submitted via: ExactAudioCopy v0.95a5
#
DISCID=31048b05
DTITLE=Oh!Penelope - Photograph
DYEAR=1995
DGENRE=DOMESTIC(J-POPS)
TTITLE0=Heart
TTITLE1=Photograph
TTITLE2=Sunshower
TTITLE3=Perfect Way
TTITLE4=5th Season
EXTD=
EXTT0=
EXTT1=
EXTT2=
EXTT3=
EXTT4=
PLAYORDER=
